# xmcd CD database file
#
# Track frame offsets:
#	150
#	14689
#	31934
#	47844
#	66300
#	77616
#	92944
#	108848
#	124150
#	143900
#	158768
#	172242
#	187251
#	200598
#
# Disc length: 2895 seconds
#
# Revision: 0
# Processed by: cddbd v1.5.1PL0 Copyright (c) Steve Scherf et al.
# Submitted via: CDex 1.51
#
DISCID=cb0b4d0e
DTITLE=Tantowi Yahya - Souther Dreams
DYEAR=2002
DGENRE=Country
TTITLE0=Rindu
TTITLE1=Rintihan Hidup
TTITLE2=Oh Dewi
TTITLE3=Mengapa
TTITLE4=All Night Long
TTITLE5=There's Not Much Love Here Anymore
TTITLE6=When Will I Let Go
TTITLE7=Real Lady's Man
TTITLE8=Which Bridge To Cross (Which Bridge To Burn)
TTITLE9=Kasih Kembalilah
TTITLE10=Bye Bye Travelin' Blues
TTITLE11=Restuma Kunantikan
TTITLE12=You Take Me For Granted
TTITLE13=Gone Gone Bone (Bonus Track)
EXTD=YEAR: 2002
EXTT0=
EXTT1=
EXTT2=
EXTT3=
EXTT4=
EXTT5=
EXTT6=
EXTT7=
EXTT8=
EXTT9=
EXTT10=
EXTT11=
EXTT12=
EXTT13=
PLAYORDER=
